<?xml version="1.0" encoding="utf-8"?>
<!-- Generator: Adobe Illustrator 22.1.0, SVG Export Plug-In . SVG Version: 6.00 Build 0)  -->
<svg version="1.1" id="Слой_1" xmlns="http://www.w3.org/2000/svg" xmlns:xlink="http://www.w3.org/1999/xlink" x="0px" y="0px"
	 viewBox="0 0 731 900" style="enable-background:new 0 0 731 900;" xml:space="preserve">
<style type="text/css">
	.st0{opacity:7.000000e-02;fill:url(#SVGID_1_);enable-background:new    ;}
	<!-- .st1{opacity:7.000000e-02;fill:url(#SVGID_2_);enable-background:new    ;}
	.st2{opacity:0.4;fill:url(#SVGID_3_);enable-background:new    ;}
	.st3{opacity:0.4;fill:url(#SVGID_4_);enable-background:new    ;}
	.st4{opacity:0.15;fill:url(#SVGID_5_);enable-background:new    ;}
	.st5{fill:rgb(0, 68, 227);}
	.st6{opacity:0.15;fill:#0088e3;enable-background:new    ;}
	.st7{opacity:0.2;fill:url(#SVGID_6_);enable-background:new    ;}
	.st8{opacity:0.2;fill:#0088e3;enable-background:new    ;}
	.st9{opacity:0.15;fill:url(#SVGID_7_);enable-background:new    ;}
	.st10{fill:rgb(0, 68, 227);}
	.st11{opacity:0.2;fill:url(#SVGID_8_);enable-background:new    ;}
	.st12{opacity:0.3;fill:url(#SVGID_9_);enable-background:new    ;}
	.st13{fill:rgb(0, 68, 227);}
	.st14{opacity:0.2;fill:url(#SVGID_10_);enable-background:new    ;} -->
</style>
<linearGradient id="SVGID_1_" gradientUnits="userSpaceOnUse" x1="-61.9442" y1="826.8813" x2="184.6862" y2="399.4335" gradientTransform="matrix(1 0 0 -1 0 900)">
	<stop  offset="0" style="stop-color:rgb(188, 228, 255)"/>
	<stop  offset="1" style="stop-color:rgb(188, 228, 255);stop-opacity:0"/>
</linearGradient>
<path class="st0" d="M1,452.5c12.7-7.4,21.9-7.6,27.6-0.6c5.7,6.9,8.5,18.6,8.5,35.1l0,88.9c0,16.9,1.6,30.9,4.7,42
	c3.1,11.5,8.4,19.7,15.7,24.5c7.1,4.9,16.7,6.2,28.9,3.9c11.9-2.2,26.8-8.4,44.6-18.7l8.5-4.9l0-70l-10.6,6.1
	c-12.7,7.4-21.2,8.3-25.5,2.9c-4.5-5.2-6.8-16.1-6.8-32.6l0-78.3c0-20.4-2-36.5-6-48.4c-4-11.8-11.9-19.4-23.8-22.8
	c11.9-17.1,19.8-33.8,23.8-50.2c4-16.4,5.9-34.8,5.9-55.2l0-78.3c0-16.5,2.3-29.9,6.8-40.4c4.2-10.3,12.7-19.1,25.5-26.5l10.6-6.1
	l0-70l-8.5,4.9C113,68.2,98.1,79.1,86.3,90.7c-12.2,11.7-21.8,24.2-28.9,37.3c-7.4,13.3-12.6,27.5-15.7,42.6
	C38.6,185.3,37,201.1,37,218l0,88.9c0,16.5-2.8,31.5-8.5,44.9c-5.7,13.5-14.9,23.9-27.6,31.2L1,452.5z"/>
<!-- <linearGradient id="SVGID_2_" gradientUnits="userSpaceOnUse" x1="56.6436" y1="897.1531" x2="303.2739" y2="469.7053" gradientTransform="matrix(1 0 0 -1 0 900)">
	<stop  offset="0" style="stop-color:rgb(188, 228, 255)"/>
	<stop  offset="1" style="stop-color:rgb(188, 228, 255);stop-opacity:0"/>
</linearGradient>
<path class="st1" d="M323.5,195c-12.7,7.4-21.9,7.6-27.6,0.6c-5.7-6.9-8.5-18.6-8.5-35.1l0-88.9c0-16.9-1.6-30.9-4.7-42
	c-3.1-11.5-8.2-19.8-15.3-24.7c-7.4-4.8-17-6.1-28.9-3.9c-12.2,2.3-27.2,8.6-45,18.9l-8.5,4.9l0,70l10.6-6.1
	c12.7-7.4,21.4-8.4,25.9-3.2c4.2,5.4,6.4,16.3,6.4,32.8l0,78.3c0,20.4,2,36.5,6,48.4c4,11.8,11.9,19.4,23.8,22.8
	c-11.9,17.1-19.8,33.8-23.8,50.2c-4,16.4-5.9,34.8-5.9,55.2l0,78.3c0,16.5-2.1,29.9-6.4,40.2c-4.5,10.5-13.2,19.4-25.9,26.7
	l-10.6,6.1l0,70l8.5-4.9c17.8-10.3,32.8-21.3,45-33c11.9-11.6,21.5-24,28.9-37.3c7.1-13.1,12.2-27.2,15.3-42.4
	c3.1-14.7,4.7-30.6,4.7-47.4l0-88.9c0-16.5,2.8-31.5,8.5-44.9c5.7-13.5,14.9-23.9,27.6-31.2L323.5,195z"/>
<linearGradient id="SVGID_3_" gradientUnits="userSpaceOnUse" x1="-21.9438" y1="796.8815" x2="224.6866" y2="369.4337" gradientTransform="matrix(1 0 0 -1 0 900)">
	<stop  offset="0" style="stop-color:rgb(188, 228, 255)"/>
	<stop  offset="1" style="stop-color:rgb(188, 228, 255);stop-opacity:0"/>
</linearGradient>
<path class="st2" d="M41,482.5c12.7-7.4,21.9-7.6,27.6-0.6c5.7,6.9,8.5,18.6,8.5,35.1l0,88.9c0,16.9,1.6,30.9,4.7,42
	c3.1,11.5,8.4,19.7,15.7,24.5c7.1,4.9,16.7,6.2,28.9,3.9c11.9-2.2,26.8-8.4,44.6-18.7l8.5-4.9l0-70l-10.6,6.1
	c-12.7,7.4-21.2,8.3-25.5,2.9c-4.5-5.2-6.8-16.1-6.8-32.6l0-78.3c0-20.4-2-36.5-6-48.4c-4-11.8-11.9-19.4-23.8-22.8
	c11.9-17.1,19.8-33.8,23.8-50.2c4-16.4,5.9-34.8,5.9-55.2l0-78.3c0-16.5,2.3-29.9,6.8-40.4c4.2-10.3,12.7-19.1,25.5-26.5l10.6-6.1
	l0-70l-8.5,4.9c-17.8,10.3-32.7,21.2-44.6,32.8c-12.2,11.7-21.8,24.2-28.9,37.3c-7.4,13.3-12.6,27.5-15.7,42.6
	C78.6,215.3,77,231.1,77,248l0,88.9c0,16.5-2.8,31.5-8.5,44.9S53.7,405.7,40.9,413L41,482.5z"/>
<linearGradient id="SVGID_4_" gradientUnits="userSpaceOnUse" x1="96.6437" y1="867.1532" x2="343.274" y2="439.7054" gradientTransform="matrix(1 0 0 -1 0 900)">
	<stop  offset="0" style="stop-color:rgb(188, 228, 255)"/>
	<stop  offset="1" style="stop-color:rgb(188, 228, 255);stop-opacity:0"/>
</linearGradient>
<path class="st3" d="M363.5,225c-12.7,7.4-21.9,7.6-27.6,0.6c-5.7-6.9-8.5-18.6-8.5-35.1l0-88.9c0-16.9-1.6-30.9-4.7-42
	c-3.1-11.5-8.2-19.8-15.3-24.7c-7.4-4.8-17-6.1-28.9-3.9c-12.2,2.3-27.2,8.6-45,18.9l-8.5,4.9l0,70l10.6-6.1
	c12.7-7.4,21.4-8.4,25.9-3.2c4.2,5.4,6.4,16.3,6.4,32.8l0,78.3c0,20.4,2,36.5,6,48.4c4,11.8,11.9,19.4,23.8,22.8
	c-11.9,17.1-19.8,33.8-23.8,50.2c-4,16.4-5.9,34.8-5.9,55.2l0,78.3c0,16.5-2.1,29.9-6.4,40.2c-4.5,10.5-13.2,19.4-25.9,26.7
	l-10.6,6.1l0,70l8.5-4.9c17.8-10.3,32.8-21.3,45-33c11.9-11.6,21.5-24,28.9-37.3c7.1-13.1,12.2-27.2,15.3-42.4
	c3.1-14.7,4.7-30.6,4.7-47.4l0-88.9c0-16.5,2.8-31.5,8.5-44.9c5.7-13.5,14.9-23.9,27.6-31.2L363.5,225z"/>
<linearGradient id="SVGID_5_" gradientUnits="userSpaceOnUse" x1="411.4689" y1="787.3468" x2="574.737" y2="504.4843" gradientTransform="matrix(1 0 0 -1 0 900)">
	<stop  offset="0" style="stop-color:rgb(188, 228, 255)"/>
	<stop  offset="1" style="stop-color:rgb(188, 228, 255);stop-opacity:0"/>
</linearGradient>
<path class="st4" d="M585.5,12.2l-170.9,98.7l0.1,409.3l170.9-98.7L585.5,12.2z"/>
<path class="st5" d="M617.6,75.1l-135.9,78.5l0,37.6l135.9-78.5L617.6,75.1z"/>
<path class="st6" d="M564.4,238.7l-130.6,75.4l0,58.6l130.6-75.4L564.4,238.7z"/>
<path class="st6" d="M564.5,167.8l-130.8,75.5l0,13.6l130.8-75.5L564.5,167.8z"/>
<path class="st6" d="M564.5,194.4l-113.1,65.3l0,13.6L564.5,208L564.5,194.4z"/>
<linearGradient id="SVGID_6_" gradientUnits="userSpaceOnUse" x1="526.8334" y1="886.9645" x2="474.8204" y2="739.4869" gradientTransform="matrix(1 0 0 -1 0 900)">
	<stop  offset="0" style="stop-color:rgb(188, 228, 255)"/>
	<stop  offset="1" style="stop-color:rgb(188, 228, 255);stop-opacity:0"/>
</linearGradient>
<path class="st7" d="M585.5,12.2l-170.9,98.7l0,54.9l170.9-98.7L585.5,12.2z"/>
<path class="st8" d="M542.8,64.6c0,8.3,4.9,12.2,10.9,8.8c6-3.5,10.8-13,10.8-21.3c0-8.3-4.9-12.2-10.9-8.8
	C547.6,46.8,542.8,56.3,542.8,64.6z"/>
<linearGradient id="SVGID_7_" gradientUnits="userSpaceOnUse" x1="201.4768" y1="407.8217" x2="364.7448" y2="124.9586" gradientTransform="matrix(1 0 0 -1 0 900)">
	<stop  offset="0" style="stop-color:rgb(188, 228, 255)"/>
	<stop  offset="1" style="stop-color:rgb(188, 228, 255);stop-opacity:0"/>
</linearGradient>
<path class="st9" d="M375.5,391.7l-170.9,98.7l0.1,409.3l170.9-98.7L375.5,391.7z"/>
<path class="st10" d="M310.4,510.8l-135.9,78.5l0,37.6l135.9-78.5L310.4,510.8z"/>
<path class="st6" d="M354.4,549.7l-130.7,75.5l0,58.5l130.7-75.5L354.4,549.7z"/>
<path class="st6" d="M354.5,633.3l-130.8,75.5l0,13.6L354.5,647L354.5,633.3z"/>
<path class="st6" d="M354.5,657.9l-113.1,65.3l0,13.6l113.1-65.3L354.5,657.9z"/>
<linearGradient id="SVGID_8_" gradientUnits="userSpaceOnUse" x1="316.8411" y1="507.4391" x2="264.8281" y2="359.9621" gradientTransform="matrix(1 0 0 -1 0 900)">
	<stop  offset="0" style="stop-color:rgb(188, 228, 255)"/>
	<stop  offset="1" style="stop-color:rgb(188, 228, 255);stop-opacity:0"/>
</linearGradient>
<path class="st11" d="M375.5,391.7l-170.9,98.7l0,54.9l170.9-98.7L375.5,391.7z"/>
<path class="st8" d="M332.8,444.2c0,8.3,4.9,12.2,10.9,8.8c6-3.5,10.8-13,10.8-21.3c0-8.3-4.9-12.2-10.9-8.8
	C337.6,426.3,332.8,435.9,332.8,444.2z"/>
<linearGradient id="SVGID_9_" gradientUnits="userSpaceOnUse" x1="469.9378" y1="513.668" x2="623.5888" y2="393.364" gradientTransform="matrix(1 0 0 -1 0 900)">
	<stop  offset="0" style="stop-color:rgb(188, 228, 255)"/>
	<stop  offset="1" style="stop-color:rgb(188, 228, 255);stop-opacity:0"/>
</linearGradient>
<path class="st12" d="M405,448.4l297.6-171.8l-0.1,155.1L431.2,588.4L405,627.3L405,448.4z"/>
<path class="st6" d="M481.5,442l65.2-37.6l0,13.6l-65.2,37.6L481.5,442z"/>
<path class="st6" d="M481.5,469.3L643,376.1l0,13.6l-161.5,93.2L481.5,469.3z"/>
<path class="st6" d="M481.5,496.6l194.8-112.5l0,13.6L481.5,510.2L481.5,496.6z"/>
<path class="st10" d="M465.5,465.5c0,12.8-7.6,27.5-16.9,32.9c-9.3,5.4-16.9-0.6-16.9-13.4c0-12.8,7.6-27.5,16.9-32.9
	C457.9,446.7,465.5,452.7,465.5,465.5z"/>
<path class="st6" d="M673.2,167.8l39.4-22.8l0-13.3l-39.4,22.8c-3.2,1.9-7.9,5.6-11.9,11.4c-4.3,6.2-7.4,14-7.4,22.5
	c0,9.4,2.4,14.7,6.9,16.3c4.3,1.4,9.3-1,12.4-2.8l16.2-9.4l0.1-0.1c1.4-0.8,3.6-1.6,5.3-1.1c1.4,0.4,3.1,1.9,3.1,7.1
	c0,5.2-1.6,8.4-3,10.3c-1.7,2.4-3.9,4.1-5.3,4.8l-0.2,0.1l-49.6,28.6l0,13.3l49.3-28.5c3.4-1.8,8.3-5.5,12.5-11.4
	c4.6-6.5,7.8-14.7,7.8-23.9c0-9.1-3.2-13.8-7.7-15.1c-4.2-1.2-9.1,0.6-12.5,2.6l-16.1,9.3c-2.3,1.3-4.1,1.9-5.2,1.5
	c-0.9-0.3-2.5-1.6-2.5-8.3c0-4.4,1.4-7.2,2.8-9.2C669.8,170.3,671.9,168.5,673.2,167.8z"/>
<path class="st13" d="M700.9,146.4c0,11.4,6.7,16.7,14.9,12c8.2-4.7,14.9-17.8,14.9-29.2c0-11.4-6.7-16.7-14.9-12
	C707.5,122,700.9,135.1,700.9,146.4z"/>
<path class="st13" d="M621.9,256.4c0,11.4,6.7,16.8,14.9,12s14.9-17.8,14.9-29.2s-6.7-16.8-14.9-12
	C628.5,232,621.9,245.1,621.9,256.4z"/>
<linearGradient id="SVGID_10_" gradientUnits="userSpaceOnUse" x1="494.7102" y1="256.9374" x2="547.0831" y2="215.6324" gradientTransform="matrix(1 0 0 -1 0 900)">
	<stop  offset="0" style="stop-color:rgb(188, 228, 255)"/>
	<stop  offset="1" style="stop-color:rgb(188, 228, 255);stop-opacity:0"/>
</linearGradient>
<path class="st14" d="M515.6,604.1c-6,3.5-10.8,11.8-10.8,18.8l0,30.5l-20.2,11.6c-6,3.5-10.8,11.8-10.8,18.8
	c0,6.9,4.9,9.7,10.8,6.3l20.2-11.6l0,30.5c0,6.9,4.9,9.7,10.8,6.3c6-3.5,10.8-11.8,10.8-18.8l0-30.5l20.2-11.6
	c6-3.5,10.8-11.8,10.8-18.8c0-6.9-4.9-9.7-10.8-6.3l-20.2,11.6l0-30.5C526.4,603.4,521.6,600.6,515.6,604.1z"/> -->
</svg>
