<svg width="300" height="340" xmlns="http://www.w3.org/2000/svg">
 <!-- Created with Method Draw - http://github.com/duopixel/Method-Draw/ -->
 <g>
  <title>background</title>
  <rect x="-1" y="-1" width="302" height="342" id="canvas_background" fill="rgba(0,0,0,0)"/>
  <g id="canvasGrid" display="none">
   <rect id="svg_2" width="100%" height="100%" x="0" y="0" stroke-width="0" fill="url(#gridpattern)"/>
  </g>
 </g>
 <g>
  <title>Layer 1</title>
  <defs>
   <style>.cls-1{fill:#0044e3;}.cls-2{fill:#92bbd6;}.cls-3{fill:#fff;}.cls-4{fill:#0088e3;}</style>
  </defs>
  <g id="svg_3">
   <g id="svg_23">
    <g id="svg_24">
     <rect fill="#fff" stroke-width="1.5" x="0" y="20.05" width="300" height="300" id="svg_1" stroke="#fff" rx="30"/>
     <g id="svg_12" stroke="null">
      <polygon class="cls-1" points="149.0734405517578,244.20947265625 65.10748291015625,212.8228759765625 53.894927978515625,30.501205444335938 243.10507202148438,30.501205444335938 226.65667724609375,212.8228759765625 149.0734405517578,244.20947265625 " id="svg_6" stroke="null"/>
      <polygon class="cls-2" points="148.89535522460938,231.46530151367188 76.7616958618164,203.92547607421875 66.94536590576172,43.91497802734375 231.19442749023438,43.91497802734375 216.79757690429688,203.92547607421875 148.89535522460938,231.46530151367188 " id="svg_7" stroke="null"/>
      <polygon class="cls-3" points="149.0734405517578,43.91497802734375 148.89535522460938,231.46530151367188 76.7616958618164,203.92547607421875 66.94536590576172,43.91497802734375 149.0734405517578,43.91497802734375 " id="svg_8" stroke="null"/>
      <path d="m211.16994,142.02131a59.70296,59.70296 0 0 1 -0.96881,10.05854a63.79904,63.79904 0 0 1 -2.64286,9.82346a61.91841,61.91841 0 0 1 -9.7451,17.44572a61.12769,61.12769 0 0 1 -14.59627,13.24279a59.04759,59.04759 0 0 1 -34.40703,9.56701l0,-11.94629a45.89029,45.89029 0 0 0 36.00984,-20.44476a44.5368,44.5368 0 0 0 5.95534,-13.21429a43.18332,43.18332 0 0 0 1.2965,-14.20448a51.93111,51.93111 0 0 0 -2.84944,-14.24722l-0.61263,-1.66692l-0.71236,-1.60281l-0.34193,-0.79784l-0.39892,-0.76935l-0.7836,-1.53158l-0.88333,-1.42472l-0.43454,-0.71236l-0.48441,-0.71236l-0.94744,-1.38198l-0.99731,-1.30362l-0.52002,-0.64112l-0.56277,-0.60551l-1.10416,-1.19677l-1.18252,-1.11128c-0.20658,-0.17809 -0.38467,-0.37755 -0.59838,-0.55564l-0.62688,-0.49865l-1.25376,-1.01155l-1.31787,-0.91895l-0.65537,-0.44879l-0.71236,-0.40605l-1.38198,-0.81921l-0.52002,-0.31344a11.76108,11.76108 0 1 1 12.04602,-20.19543c0.2707,0.16384 0.55564,0.34906 0.81921,0.54139l2.22257,1.58856l1.09704,0.79784c0.35618,0.27782 0.71236,0.57701 1.05429,0.86908l2.08009,1.75241c0.66962,0.61975 1.31787,1.24663 1.96612,1.88776l0.96169,0.94744c0.32056,0.32769 0.61263,0.66962 0.91182,0.99731l1.79515,2.03023c0.56277,0.71236 1.10416,1.42472 1.65268,2.13708l0.81921,1.06854l0.71236,1.11128l1.46746,2.22969l1.32499,2.30093l0.64825,1.1469l0.57701,1.18252l1.13978,2.36504l0.99018,2.42203l0.48441,1.20389l0.41317,1.21814l0.82634,2.45052c0.23508,0.81209 0.45591,1.64555 0.66962,2.46477a70.87991,70.87991 0 0 1 2.28668,19.84637" id="svg_9" stroke="null"/>
      <path d="m148.80987,182.77547a11.80382,11.80382 0 0 1 -11.77533,-11.80382l0,-89.08785a11.80382,11.80382 0 0 1 11.75395,-11.80382l0,0a11.80382,11.80382 0 0 1 11.80382,11.80382l0,89.08785a11.80382,11.80382 0 0 1 -11.80382,11.80382l0.02137,0l0.00001,0z" id="svg_10" stroke="null"/>
      <path class="cls-4" d="m148.83837,190.21252l0,11.94629c-0.9047,0 -1.79515,-0.08548 -2.67848,-0.16384a57.87932,57.87932 0 0 1 -45.65521,-29.52736a56.13404,56.13404 0 0 1 -6.13343,-17.2605a58.05029,58.05029 0 0 1 -0.86196,-9.06123c0,-1.51733 0,-3.02753 0.17809,-4.53062l0.17809,-2.24394l0.33481,-2.23681a54.85179,54.85179 0 0 1 2.08722,-8.72642c0.23508,-0.71236 0.52002,-1.42472 0.77647,-2.13708s0.50578,-1.42472 0.81921,-2.07297l0.93319,-2.0231c0.15672,-0.34193 0.29919,-0.71236 0.47016,-1.01155l0.53427,-0.98306a54.2819,54.2819 0 0 1 10.6213,-14.01214a55.56415,55.56415 0 0 1 14.32558,-9.79496a54.78055,54.78055 0 0 0 -13.27128,10.82789a52.15194,52.15194 0 0 0 -9.03274,14.24722l-0.42029,0.96169c-0.13535,0.32769 -0.2422,0.66962 -0.3633,0.99018l-0.71236,1.98036c-0.24933,0.64825 -0.38467,1.33924 -0.59126,2.00173s-0.39892,1.33924 -0.55564,2.00886a51.41821,51.41821 0 0 0 -1.25376,8.24202l-0.12822,2.06585l0,2.07297c0,1.37486 0.09261,2.74971 0.19234,4.11745a53.14212,53.14212 0 0 0 1.42472,8.06393a49.23838,49.23838 0 0 0 17.58107,26.35735a47.39337,47.39337 0 0 0 29.02158,9.97305c0.71236,0 1.42472,0 2.13708,-0.04987" id="svg_11" stroke="null"/>
     </g>
    </g>
   </g>
   <g id="svg_22" stroke="null">
    <g id="svg_19" stroke-linecap="round" fill-rule="evenodd" font-size="9pt" stroke-width="0.25mm" fill="none" transform="matrix(0.7934806724968708,0,0,0.7934806724968708,-978.5579062618688,-1050.3468732919466) " stroke="#000">
     <path d="m1474.51865,1705.35717l-8.2,0l0,-48.6l6.8,0l0.7,7l0.3,0q3.2,-3.5 6.95,-5.85q3.75,-2.35 8.15,-2.35a20.667,20.667 0 0 1 3.411,0.264q1.813,0.304 3.275,0.958a9.972,9.972 0 0 1 2.064,1.228a13.215,13.215 0 0 1 3.583,4.35a17.454,17.454 0 0 1 1.067,2.5a48.143,48.143 0 0 1 3.693,-3.681a35.353,35.353 0 0 1 3.957,-3.069q3.85,-2.55 8.35,-2.55a18.6,18.6 0 0 1 4.312,0.469a11.692,11.692 0 0 1 6.838,4.331q2.627,3.455 3.364,9.294a39.317,39.317 0 0 1 0.286,4.906l0,30.8l-8.2,0l0,-29.7q0,-5.861 -1.587,-8.944a7.888,7.888 0 0 0 -0.613,-1.006a7.081,7.081 0 0 0 -4.402,-2.809a11.227,11.227 0 0 0 -2.398,-0.241a9.913,9.913 0 0 0 -4.108,0.969q-3.8,1.726 -8.092,6.531l0,35.2l-8.2,0l0,-29.7q0,-5.861 -1.587,-8.944a7.888,7.888 0 0 0 -0.613,-1.006q-2.199,-3.048 -6.894,-3.05a10.282,10.282 0 0 0 -0.006,0a9.913,9.913 0 0 0 -4.108,0.969q-3.8,1.726 -8.092,6.531l0,35.2zm-200.9,0l-8.3,0l0,-65.6l20.5,0a46.171,46.171 0 0 1 5.673,0.335a37.545,37.545 0 0 1 3.577,0.615a21.957,21.957 0 0 1 4.177,1.362a17.573,17.573 0 0 1 3.123,1.788q3.05,2.2 4.75,5.7q1.522,3.134 1.681,7.549a29.131,29.131 0 0 1 0.019,1.051q0,6.775 -3.097,11.15a14.649,14.649 0 0 1 -0.903,1.15a19.234,19.234 0 0 1 -7.385,5.192a25.239,25.239 0 0 1 -3.415,1.108l16.7,28.6l-9.4,0l-15.8,-27.7l-11.9,0l0,27.7zm137.6,-17.8l0,-30.8l8.3,0l0,29.7q0,6.9 2.15,9.95q2.15,3.05 6.95,3.05q3.8,0 6.7,-1.95a19.668,19.668 0 0 0 2.065,-1.618q1.019,-0.905 2.103,-2.063a49.369,49.369 0 0 0 2.232,-2.569l0,-34.5l8.2,0l0,48.6l-6.8,0l-0.7,-7.6l-0.3,0a36.537,36.537 0 0 1 -3.711,3.799a28.482,28.482 0 0 1 -3.439,2.601a15.116,15.116 0 0 1 -6.088,2.21a19.5,19.5 0 0 1 -2.762,0.19a20.003,20.003 0 0 1 -4.257,-0.423q-4.597,-1.002 -7.093,-4.377a15.6,15.6 0 0 1 -2.232,-4.452q-1.318,-4.02 -1.318,-9.748zm-46.6,12.3l4.1,-5.5a34.621,34.621 0 0 0 4.419,3.073a29.696,29.696 0 0 0 2.131,1.127a16.149,16.149 0 0 0 4.582,1.373a21.263,21.263 0 0 0 3.168,0.227a16.757,16.757 0 0 0 2.638,-0.194q2.875,-0.459 4.562,-2.006a7.349,7.349 0 0 0 1.855,-2.577a7.217,7.217 0 0 0 0.545,-2.823a6.066,6.066 0 0 0 -0.266,-1.826a5.199,5.199 0 0 0 -0.734,-1.474a9.726,9.726 0 0 0 -2.056,-2.096a11.337,11.337 0 0 0 -0.494,-0.354q-1.55,-1.05 -3.55,-1.85l-4,-1.6q-2.6,-0.9 -5.2,-2.05a21.3,21.3 0 0 1 -3.727,-2.102a19.162,19.162 0 0 1 -0.923,-0.698q-2.05,-1.65 -3.35,-3.85a9.102,9.102 0 0 1 -1.085,-2.93a12.491,12.491 0 0 1 -0.215,-2.37q0,-2.9 1.15,-5.45q1.15,-2.55 3.3,-4.4a14.513,14.513 0 0 1 3.231,-2.083a18.293,18.293 0 0 1 2.019,-0.817a19.471,19.471 0 0 1 3.852,-0.863a25.519,25.519 0 0 1 3.148,-0.187a23.064,23.064 0 0 1 5.586,0.657a20.094,20.094 0 0 1 2.864,0.943a28.916,28.916 0 0 1 3.999,2.022a23.429,23.429 0 0 1 2.651,1.878l-3.9,5.2a26.339,26.339 0 0 0 -4.696,-2.869a24.342,24.342 0 0 0 -0.504,-0.231q-2.7,-1.2 -5.9,-1.2a15.969,15.969 0 0 0 -2.455,0.176q-1.253,0.195 -2.253,0.609a6.366,6.366 0 0 0 -2.042,1.315q-2.15,2.1 -2.15,4.9a5.392,5.392 0 0 0 0.239,1.633a4.625,4.625 0 0 0 0.661,1.317a7.918,7.918 0 0 0 1.44,1.512a9.963,9.963 0 0 0 0.96,0.688a17.581,17.581 0 0 0 1.83,1.006a22.477,22.477 0 0 0 1.62,0.694q1.95,0.75 4.05,1.55q2.6,1 5.25,2.1a20.532,20.532 0 0 1 3.943,2.151a18.676,18.676 0 0 1 0.807,0.599q2.1,1.65 3.45,4.05a10.16,10.16 0 0 1 1.092,3.017q0.25,1.255 0.258,2.69a17.019,17.019 0 0 1 0,0.093a13.759,13.759 0 0 1 -0.977,5.191a13.273,13.273 0 0 1 -0.173,0.409a13.288,13.288 0 0 1 -3.26,4.475a15.268,15.268 0 0 1 -0.14,0.125a14.829,14.829 0 0 1 -3.241,2.167a19.221,19.221 0 0 1 -2.359,0.983a20.655,20.655 0 0 1 -4.009,0.922a27.818,27.818 0 0 1 -3.641,0.228q-5.2,0 -9.9,-1.9a32.816,32.816 0 0 1 -5.529,-2.845a28.004,28.004 0 0 1 -2.671,-1.955zm-6.9,-16.8l-32.8,0q0.5,7.8 4.85,12.35a14.533,14.533 0 0 0 9.434,4.46a19.938,19.938 0 0 0 1.916,0.09a20.4,20.4 0 0 0 4.16,-0.41a17.357,17.357 0 0 0 2.29,-0.64q2.95,-1.05 5.65,-2.75l2.9,5.4a39.742,39.742 0 0 1 -5.078,2.668a46.514,46.514 0 0 1 -2.022,0.832a22.064,22.064 0 0 1 -4.948,1.243a29.187,29.187 0 0 1 -3.952,0.257a24.208,24.208 0 0 1 -7.533,-1.155a22.613,22.613 0 0 1 -1.617,-0.595q-4.25,-1.75 -7.4,-5a22.264,22.264 0 0 1 -4.032,-5.826a26.856,26.856 0 0 1 -0.918,-2.124q-1.8,-4.7 -1.8,-10.7a33.373,33.373 0 0 1 0.492,-5.855a26.033,26.033 0 0 1 1.358,-4.895a27.383,27.383 0 0 1 2.54,-5.007a22.713,22.713 0 0 1 2.36,-3.043q3.05,-3.3 6.95,-5.05q3.9,-1.75 8.1,-1.75a22.699,22.699 0 0 1 4.619,0.452a18.257,18.257 0 0 1 3.631,1.148q3.65,1.6 6.1,4.6a19.924,19.924 0 0 1 2.877,4.812a24.592,24.592 0 0 1 0.873,2.388a28.636,28.636 0 0 1 1.085,5.338a37.08,37.08 0 0 1 0.215,4.062q0,1.3 -0.05,2.55a16.087,16.087 0 0 1 -0.065,0.958q-0.066,0.658 -0.185,1.192zm228.8,0l-32.8,0q0.5,7.8 4.85,12.35a14.533,14.533 0 0 0 9.434,4.46a19.938,19.938 0 0 0 1.916,0.09a20.4,20.4 0 0 0 4.16,-0.41a17.357,17.357 0 0 0 2.29,-0.64q2.95,-1.05 5.65,-2.75l2.9,5.4a39.742,39.742 0 0 1 -5.078,2.668a46.514,46.514 0 0 1 -2.022,0.832a22.064,22.064 0 0 1 -4.948,1.243a29.187,29.187 0 0 1 -3.952,0.257a24.208,24.208 0 0 1 -7.533,-1.155a22.613,22.613 0 0 1 -1.617,-0.595q-4.25,-1.75 -7.4,-5a22.264,22.264 0 0 1 -4.032,-5.826a26.856,26.856 0 0 1 -0.918,-2.124q-1.8,-4.7 -1.8,-10.7a33.373,33.373 0 0 1 0.492,-5.855a26.033,26.033 0 0 1 1.358,-4.895a27.383,27.383 0 0 1 2.54,-5.007a22.713,22.713 0 0 1 2.36,-3.043q3.05,-3.3 6.95,-5.05q3.9,-1.75 8.1,-1.75a22.699,22.699 0 0 1 4.619,0.452a18.257,18.257 0 0 1 3.631,1.148q3.65,1.6 6.1,4.6a19.924,19.924 0 0 1 2.877,4.812a24.592,24.592 0 0 1 0.873,2.388a28.636,28.636 0 0 1 1.085,5.338a37.08,37.08 0 0 1 0.215,4.062q0,1.3 -0.05,2.55a16.087,16.087 0 0 1 -0.065,0.958q-0.066,0.658 -0.185,1.192zm-312.9,-36.6l0,24.4l11,0a30.197,30.197 0 0 0 4.461,-0.307q2.26,-0.339 4.095,-1.049a12.983,12.983 0 0 0 3.244,-1.794a10.108,10.108 0 0 0 3.719,-5.952a15.988,15.988 0 0 0 0.381,-3.598a16.061,16.061 0 0 0 -0.324,-3.348q-0.421,-1.972 -1.388,-3.424a7.945,7.945 0 0 0 -2.388,-2.328q-2.879,-1.825 -7.532,-2.369a36.874,36.874 0 0 0 -4.268,-0.231l-11,0zm51.2,30.7l26,0a27.815,27.815 0 0 0 -0.3,-4.229q-0.336,-2.179 -1.049,-3.935a11.906,11.906 0 0 0 -1.801,-3.086a10.265,10.265 0 0 0 -6.802,-3.714a14.951,14.951 0 0 0 -2.048,-0.136q-2.6,0 -4.95,1a12.936,12.936 0 0 0 -4.003,2.703a14.855,14.855 0 0 0 -0.247,0.247a15.357,15.357 0 0 0 -2.39,3.232a18.683,18.683 0 0 0 -0.76,1.518q-1.25,2.8 -1.65,6.4zm228.8,0l26,0a27.815,27.815 0 0 0 -0.3,-4.229q-0.336,-2.179 -1.049,-3.935a11.906,11.906 0 0 0 -1.801,-3.086a10.265,10.265 0 0 0 -6.802,-3.714a14.951,14.951 0 0 0 -2.048,-0.136q-2.6,0 -4.95,1a12.936,12.936 0 0 0 -4.003,2.703a14.855,14.855 0 0 0 -0.247,0.247a15.357,15.357 0 0 0 -2.39,3.232a18.683,18.683 0 0 0 -0.76,1.518q-1.25,2.8 -1.65,6.4z" id="svg_21" fill="#000" stroke="#000"/>
    </g>
   </g>
  </g>
 </g>
</svg>