<svg width="1240" height="305" xmlns="http://www.w3.org/2000/svg">
 <defs>
  <style>.cls-1{fill:#0044e3;}.cls-2{fill:#92bbd6;}.cls-3{fill:#fff;}.cls-4{fill:#0088e3;}</style>
 </defs>
 <g>
  <title>background</title>
  <rect fill="none" id="canvas_background" height="307" width="1242" y="-1" x="-1"/>
 </g>
 <g>
  <title>Layer 1</title>
  <polygon id="svg_1" points="151.9 301.33 34.03 257.27 18.29 1.33 283.9 1.33 260.81 257.27 151.9 301.33" class="cls-1"/>
  <polygon id="svg_2" points="151.65 283.44 50.39 244.78 36.61 20.16 267.18 20.16 246.97 244.78 151.65 283.44" class="cls-2"/>
  <polygon id="svg_3" points="151.9 20.16 151.65 283.44 50.39 244.78 36.61 20.16 151.9 20.16" class="cls-3"/>
  <path id="svg_4" d="m239.07,157.88a83.81,83.81 0 0 1 -1.36,14.12a89.56,89.56 0 0 1 -3.71,13.79a86.92,86.92 0 0 1 -13.68,24.49a85.81,85.81 0 0 1 -20.49,18.59a82.89,82.89 0 0 1 -48.3,13.43l0,-16.77a64.42,64.42 0 0 0 50.55,-28.7a62.52,62.52 0 0 0 8.36,-18.55a60.62,60.62 0 0 0 1.82,-19.94a72.9,72.9 0 0 0 -4,-20l-0.86,-2.34l-1,-2.25l-0.48,-1.12l-0.56,-1.08l-1.1,-2.15l-1.24,-2l-0.61,-1l-0.68,-1l-1.33,-1.94l-1.4,-1.83l-0.73,-0.9l-0.79,-0.85l-1.55,-1.68l-1.66,-1.56c-0.29,-0.25 -0.54,-0.53 -0.84,-0.78l-0.88,-0.7l-1.76,-1.42l-1.85,-1.29l-0.92,-0.63l-1,-0.57l-1.94,-1.15l-0.73,-0.44a16.51,16.51 0 1 1 16.91,-28.35c0.38,0.23 0.78,0.49 1.15,0.76l3.12,2.23l1.54,1.12c0.5,0.39 1,0.81 1.48,1.22l2.92,2.46c0.94,0.87 1.85,1.75 2.76,2.65l1.35,1.33c0.45,0.46 0.86,0.94 1.28,1.4l2.52,2.85c0.79,1 1.55,2 2.32,3l1.15,1.5l1,1.56l2.06,3.13l1.86,3.23l0.91,1.61l0.81,1.66l1.6,3.32l1.39,3.4l0.68,1.69l0.58,1.71l1.16,3.44c0.33,1.14 0.64,2.31 0.94,3.46a99.5,99.5 0 0 1 3.21,27.86"/>
  <path id="svg_5" d="m151.53,215.09a16.57,16.57 0 0 1 -16.53,-16.57l0,-125.06a16.57,16.57 0 0 1 16.5,-16.57l0,0a16.57,16.57 0 0 1 16.57,16.57l0,125.06a16.57,16.57 0 0 1 -16.57,16.57l0.03,0z"/>
  <path id="svg_6" d="m151.57,225.53l0,16.77c-1.27,0 -2.52,-0.12 -3.76,-0.23a81.25,81.25 0 0 1 -64.09,-41.45a78.8,78.8 0 0 1 -8.61,-24.23a81.49,81.49 0 0 1 -1.21,-12.72c0,-2.13 0,-4.25 0.25,-6.36l0.25,-3.15l0.47,-3.14a77,77 0 0 1 2.93,-12.25c0.33,-1 0.73,-2 1.09,-3s0.71,-2 1.15,-2.91l1.31,-2.84c0.22,-0.48 0.42,-1 0.66,-1.42l0.75,-1.38a76.2,76.2 0 0 1 14.91,-19.67a78,78 0 0 1 20.11,-13.75a76.9,76.9 0 0 0 -18.63,15.2a73.21,73.21 0 0 0 -12.68,20l-0.59,1.35c-0.19,0.46 -0.34,0.94 -0.51,1.39l-1,2.78c-0.35,0.91 -0.54,1.88 -0.83,2.81s-0.56,1.88 -0.78,2.82a72.18,72.18 0 0 0 -1.76,11.57l-0.18,2.9l0,2.91c0,1.93 0.13,3.86 0.27,5.78a74.6,74.6 0 0 0 2,11.32a69.12,69.12 0 0 0 24.68,37a66.53,66.53 0 0 0 40.74,14c1,0 2,0 3,-0.07" class="cls-4"/>
  <g stroke="null" id="svg_13">
   <g stroke="#000" transform="matrix(1.7931517135158808,0,0,1.7931517135158808,-27204.373157388123,-5834.8528729327345) " fill="none" stroke-width="0.25mm" font-size="9pt" fill-rule="evenodd" stroke-linecap="round" id="svg_10">
    <path fill="#000000" stroke="null" id="svg_12" d="m15695.38091,3303.22648l0,-43.5l3.3,0l0,75l-3.3,0l0,-28.6l-51.4,0l0,28.6l-3.3,0l0,-75l3.3,0l0,43.5l51.4,0zm-132.5,28.6l32.8,0l0,2.9l-37.7,0l33,-72.1l-33,0l0,-2.9l38,0l-33.1,72.1zm-85.6,-23.3l0,26.2l-3.2,0l0,-45l3.2,0l0,9.1q4.324,-8.649 13.826,-9.964a26.066,26.066 0 0 1 3.574,-0.236a19.995,19.995 0 0 1 8.054,1.589a19.136,19.136 0 0 1 6.046,4.211q5.7,5.8 5.7,14.1l0,26.2l-3.2,0l0,-26.2q0,-6.9 -4.85,-12a16.248,16.248 0 0 0 -5.825,-4.016a15.992,15.992 0 0 0 -5.925,-1.084a16.827,16.827 0 0 0 -11.81,4.777a21.942,21.942 0 0 0 -0.34,0.323a17.722,17.722 0 0 0 -3.768,5.177a15.86,15.86 0 0 0 -1.482,6.823zm-111.2,26.2l0,-75l3.2,0a41.433,41.433 0 0 1 12.577,1.824a33.334,33.334 0 0 1 14.523,9.226q10.3,11.05 10.3,26.5q0,15.45 -10.25,26.45a34.053,34.053 0 0 1 -21.907,10.718a47.404,47.404 0 0 1 -5.243,0.282l-3.2,0zm92.8,-45l3.2,0l0,45l-3.2,0l0,-11.2q-2.8,5.7 -8.4,9q-5.6,3.3 -12,3.3a22.979,22.979 0 0 1 -16.69,-6.842a28.101,28.101 0 0 1 -0.11,-0.108a23.277,23.277 0 0 1 -5.754,-8.955a23.383,23.383 0 0 1 -1.246,-7.695q0,-9.7 7,-16.65q7,-6.95 16.8,-6.95a23.941,23.941 0 0 1 11.884,3.191a28.231,28.231 0 0 1 0.366,0.209a20.72,20.72 0 0 1 4.77,3.74a17.227,17.227 0 0 1 3.38,5.26l0,-11.3zm295,0l3.2,0l0,45l-3.2,0l0,-11.2q-2.8,5.7 -8.4,9q-5.6,3.3 -12,3.3a22.979,22.979 0 0 1 -16.69,-6.842a28.101,28.101 0 0 1 -0.11,-0.108a23.277,23.277 0 0 1 -5.754,-8.955a23.383,23.383 0 0 1 -1.246,-7.695q0,-9.7 7,-16.65q7,-6.95 16.8,-6.95a23.941,23.941 0 0 1 11.884,3.191a28.231,28.231 0 0 1 0.366,0.209a20.72,20.72 0 0 1 4.77,3.74a17.227,17.227 0 0 1 3.38,5.26l0,-11.3zm56.9,0l3.2,0l0,45l-3.2,0l0,-11.2q-2.8,5.7 -8.4,9q-5.6,3.3 -12,3.3a22.979,22.979 0 0 1 -16.69,-6.842a28.101,28.101 0 0 1 -0.11,-0.108a23.277,23.277 0 0 1 -5.754,-8.955a23.383,23.383 0 0 1 -1.246,-7.695q0,-9.7 7,-16.65q7,-6.95 16.8,-6.95a23.941,23.941 0 0 1 11.884,3.191a28.231,28.231 0 0 1 0.366,0.209a20.72,20.72 0 0 1 4.77,3.74a17.227,17.227 0 0 1 3.38,5.26l0,-11.3zm12.4,39.7l0,-4.8q3.79,8.377 12.154,8.4a16.701,16.701 0 0 0 0.046,0q5.2,0 8.75,-3.2a12.526,12.526 0 0 0 2.021,-2.289a8.541,8.541 0 0 0 1.529,-4.861q0,-3.95 -2.25,-6.65a20.859,20.859 0 0 0 -5.251,-4.48a23.499,23.499 0 0 0 -0.199,-0.12q-3.2,-1.9 -6.35,-3.75q-3.15,-1.85 -5.4,-4.5q-2.25,-2.65 -2.25,-6.2a7.521,7.521 0 0 1 2.422,-5.61a10.042,10.042 0 0 1 0.428,-0.39a9.935,9.935 0 0 1 4.683,-2.208a14.027,14.027 0 0 1 2.667,-0.242q4.5,0 7.7,3.5l0,4.1a12.845,12.845 0 0 0 -2.224,-2.582a8.678,8.678 0 0 0 -5.876,-2.218q-2.6,0 -4.6,1.7a5.86,5.86 0 0 0 -1.367,1.641a5.231,5.231 0 0 0 -0.633,2.559a5.572,5.572 0 0 0 1.016,3.179a8.408,8.408 0 0 0 1.234,1.421a24.79,24.79 0 0 0 2.989,2.37a31.527,31.527 0 0 0 2.411,1.48q3.15,1.75 6.35,3.75q3.2,2 5.45,5.1q2.25,3.1 2.25,7.1a13.161,13.161 0 0 1 -4.043,9.657a16.765,16.765 0 0 1 -0.407,0.393q-4.45,4.15 -10.75,4.15q-4,0 -7.45,-1.75a13.397,13.397 0 0 1 -2.745,-1.821a10.373,10.373 0 0 1 -2.305,-2.829zm-453.1,-66.7l-0.8,0l0,68.9l0.8,0a34.4,34.4 0 0 0 12.153,-2.074a30.527,30.527 0 0 0 11.797,-8.026q9.35,-10.1 9.35,-24.25q0,-14.15 -9.35,-24.35a30.779,30.779 0 0 0 -22.481,-10.174a40.684,40.684 0 0 0 -1.469,-0.026zm47.8,49.6a19.849,19.849 0 0 0 5.959,14.357a25.278,25.278 0 0 0 0.191,0.193q6.15,6.15 14.6,6.15a19.411,19.411 0 0 0 14.167,-5.865a24.146,24.146 0 0 0 0.283,-0.285q6,-6.15 6,-14.6q0,-8.45 -6.05,-14.65a20.507,20.507 0 0 0 -6.977,-4.792a19.68,19.68 0 0 0 -7.473,-1.408a19.679,19.679 0 0 0 -14.309,6.008a25.439,25.439 0 0 0 -0.241,0.242q-6.15,6.25 -6.15,14.65zm295,0a19.849,19.849 0 0 0 5.959,14.357a25.278,25.278 0 0 0 0.191,0.193q6.15,6.15 14.6,6.15a19.411,19.411 0 0 0 14.167,-5.865a24.146,24.146 0 0 0 0.283,-0.285q6,-6.15 6,-14.6q0,-8.45 -6.05,-14.65a20.507,20.507 0 0 0 -6.977,-4.792a19.68,19.68 0 0 0 -7.473,-1.408a19.679,19.679 0 0 0 -14.309,6.008a25.439,25.439 0 0 0 -0.241,0.242q-6.15,6.25 -6.15,14.65zm56.9,0a19.849,19.849 0 0 0 5.959,14.357a25.278,25.278 0 0 0 0.191,0.193q6.15,6.15 14.6,6.15a19.411,19.411 0 0 0 14.167,-5.865a24.146,24.146 0 0 0 0.283,-0.285q6,-6.15 6,-14.6q0,-8.45 -6.05,-14.65a20.507,20.507 0 0 0 -6.977,-4.792a19.68,19.68 0 0 0 -7.473,-1.408a19.679,19.679 0 0 0 -14.309,6.008a25.439,25.439 0 0 0 -0.241,0.242q-6.15,6.25 -6.15,14.65z"/>
   </g>
  </g>
  <g stroke="null" id="svg_20">
   <g stroke="#000" transform="matrix(1.3481779738766544,0,0,1.3481779738766544,-36915.112629354284,-8113.801732878375) " fill="none" stroke-width="0.25mm" font-size="9pt" fill-rule="evenodd" stroke-linecap="round" id="svg_17">
    <path fill="#000000" stroke="null" id="svg_19" d="m27689.6169,6185.75992l-15.9,36.6l-32.9,-76.3l3.7,0l29.7,68.7l13.9,-32.5l-15.5,-36.2l3.6,0l13.9,32.9l14.3,-32.9l2.8,0l-15.6,36.1l14.2,32.9l30.3,-69l2.7,0l-33.3,76.3l-15.9,-36.6zm97.8,35.3l-3.2,0l0,-75l3.2,0l0,41a20.104,20.104 0 0 1 7.229,-8.052a24.719,24.719 0 0 1 1.221,-0.748a24.529,24.529 0 0 1 8.024,-2.961a22.788,22.788 0 0 1 3.926,-0.339a22.922,22.922 0 0 1 16.632,6.735a27.413,27.413 0 0 1 0.218,0.215a23.172,23.172 0 0 1 5.89,9.492a23.71,23.71 0 0 1 1.06,7.158a22.679,22.679 0 0 1 -6.735,16.432a27.973,27.973 0 0 1 -0.215,0.218q-6.95,6.95 -16.85,6.95a22.785,22.785 0 0 1 -9.911,-2.314a27.66,27.66 0 0 1 -1.789,-0.936q-5.7,-3.25 -8.7,-8.75l0,10.9zm368.5,20l-3.2,0l0,-65l3.2,0l0,11a20.104,20.104 0 0 1 7.229,-8.052a24.719,24.719 0 0 1 1.221,-0.748a24.529,24.529 0 0 1 8.024,-2.961a22.788,22.788 0 0 1 3.926,-0.339a22.922,22.922 0 0 1 16.632,6.735a27.413,27.413 0 0 1 0.218,0.215a23.172,23.172 0 0 1 5.89,9.492a23.71,23.71 0 0 1 1.06,7.158a22.679,22.679 0 0 1 -6.735,16.432a27.973,27.973 0 0 1 -0.215,0.218q-6.95,6.95 -16.85,6.95a22.785,22.785 0 0 1 -9.911,-2.314a27.66,27.66 0 0 1 -1.789,-0.936q-5.7,-3.25 -8.7,-8.75l0,30.9zm-398.7,-18.8l-0.9,0a22.388,22.388 0 0 1 -16.107,-6.71a29.348,29.348 0 0 1 -0.443,-0.44a24.897,24.897 0 0 1 -5.176,-7.478a22.582,22.582 0 0 1 -1.874,-9.172a22.359,22.359 0 0 1 6.783,-16.232a28.65,28.65 0 0 1 0.217,-0.218q7,-6.95 17.3,-6.95a22.775,22.775 0 0 1 16.764,7.207a30.825,30.825 0 0 1 0.936,0.993l-31.4,31a29.873,29.873 0 0 0 4.212,2.853q2.461,1.357 4.846,1.929a14.71,14.71 0 0 0 3.442,0.418q6,0 10.75,-2.75q4.75,-2.75 7.85,-7.35l0,5.1a24.287,24.287 0 0 1 -7.315,5.599a22.266,22.266 0 0 1 -9.885,2.201zm194,0l-0.9,0a22.388,22.388 0 0 1 -16.107,-6.71a29.348,29.348 0 0 1 -0.443,-0.44a24.897,24.897 0 0 1 -5.176,-7.478a22.582,22.582 0 0 1 -1.874,-9.172a22.359,22.359 0 0 1 6.783,-16.232a28.65,28.65 0 0 1 0.217,-0.218q7,-6.95 17.3,-6.95a22.775,22.775 0 0 1 16.764,7.207a30.825,30.825 0 0 1 0.936,0.993l-31.4,31a29.873,29.873 0 0 0 4.212,2.853q2.461,1.357 4.846,1.929a14.71,14.71 0 0 0 3.442,0.418q6,0 10.75,-2.75q4.75,-2.75 7.85,-7.35l0,5.1a24.287,24.287 0 0 1 -7.315,5.599a22.266,22.266 0 0 1 -9.885,2.201zm98.8,0l-0.9,0a22.388,22.388 0 0 1 -16.107,-6.71a29.348,29.348 0 0 1 -0.443,-0.44a24.897,24.897 0 0 1 -5.176,-7.478a22.582,22.582 0 0 1 -1.874,-9.172a22.359,22.359 0 0 1 6.783,-16.232a28.65,28.65 0 0 1 0.217,-0.218q7,-6.95 17.3,-6.95a22.775,22.775 0 0 1 16.764,7.207a30.825,30.825 0 0 1 0.936,0.993l-31.4,31a29.873,29.873 0 0 0 4.212,2.853q2.461,1.357 4.846,1.929a14.71,14.71 0 0 0 3.442,0.418q6,0 10.75,-2.75q4.75,-2.75 7.85,-7.35l0,5.1a24.287,24.287 0 0 1 -7.315,5.599a22.266,22.266 0 0 1 -9.885,2.201zm182.1,0l-0.9,0a22.388,22.388 0 0 1 -16.107,-6.71a29.348,29.348 0 0 1 -0.443,-0.44a24.897,24.897 0 0 1 -5.176,-7.478a22.582,22.582 0 0 1 -1.874,-9.172a22.359,22.359 0 0 1 6.783,-16.232a28.65,28.65 0 0 1 0.217,-0.218q7,-6.95 17.3,-6.95a22.775,22.775 0 0 1 16.764,7.207a30.825,30.825 0 0 1 0.936,0.993l-31.4,31a29.873,29.873 0 0 0 4.212,2.853q2.461,1.357 4.846,1.929a14.71,14.71 0 0 0 3.442,0.418q6,0 10.75,-2.75q4.75,-2.75 7.85,-7.35l0,5.1a24.287,24.287 0 0 1 -7.315,5.599a22.266,22.266 0 0 1 -9.885,2.201zm-354.5,-1.2l0,-75l3.2,0a41.433,41.433 0 0 1 12.577,1.824a33.334,33.334 0 0 1 14.523,9.226q10.3,11.05 10.3,26.5q0,15.45 -10.25,26.45a34.053,34.053 0 0 1 -21.907,10.718a47.404,47.404 0 0 1 -5.243,0.282l-3.2,0zm119.6,-5.5l18.9,-39.5l2.9,0l-22.1,46.3l-22.2,-46.3l3.5,0l19,39.5zm-115.6,-66.5l-0.8,0l0,68.9l0.8,0a34.4,34.4 0 0 0 12.153,-2.074a30.527,30.527 0 0 0 11.797,-8.026q9.35,-10.1 9.35,-24.25q0,-14.15 -9.35,-24.35a30.779,30.779 0 0 0 -22.481,-10.174a40.684,40.684 0 0 0 -1.469,-0.026zm212.5,70.1l0,2.8q-7.1,0 -12.1,-4.75q-5,-4.75 -5,-12.15l0,-59l3.2,0l0,59a15.081,15.081 0 0 0 0.832,5.097a13.194,13.194 0 0 0 3.218,5.003a13.482,13.482 0 0 0 9.759,4a16.743,16.743 0 0 0 0.091,0zm168.2,-28.1l0,30l-3.2,0l0,-45l3.2,0l0,6.7a13.354,13.354 0 0 1 3.722,-4.347a17.144,17.144 0 0 1 1.878,-1.253a16.484,16.484 0 0 1 7.771,-2.187a19.646,19.646 0 0 1 0.729,-0.013a14.11,14.11 0 0 1 6.945,1.866a18.529,18.529 0 0 1 2.055,1.334l0,4q-4.4,-4.4 -9.7,-4.4a12.774,12.774 0 0 0 -8.835,3.512a16.864,16.864 0 0 0 -0.515,0.488a14.087,14.087 0 0 0 -2.839,3.892a12.279,12.279 0 0 0 -1.211,5.408zm-142.4,31.1l-0.9,0a22.04,22.04 0 0 1 -16.066,-6.71a28.152,28.152 0 0 1 -0.434,-0.44q-6.9,-7.15 -6.9,-16.65a22.359,22.359 0 0 1 6.783,-16.232a28.65,28.65 0 0 1 0.217,-0.218a23.039,23.039 0 0 1 16.696,-6.95a27.812,27.812 0 0 1 0.154,0a22.861,22.861 0 0 1 16.582,6.735a27.552,27.552 0 0 1 0.218,0.215a23.575,23.575 0 0 1 5.473,8.249a22.842,22.842 0 0 1 1.477,8.251q0,9.55 -6.8,16.65a22.658,22.658 0 0 1 -8.568,5.741a22.767,22.767 0 0 1 -7.932,1.359zm-332.7,-23.5a19.849,19.849 0 0 0 5.959,14.357a25.278,25.278 0 0 0 0.191,0.193q6.15,6.15 14.6,6.15a19.411,19.411 0 0 0 14.167,-5.865a24.146,24.146 0 0 0 0.283,-0.285q6,-6.15 6,-14.6q0,-8.45 -6.05,-14.65a20.507,20.507 0 0 0 -6.977,-4.792a19.68,19.68 0 0 0 -7.473,-1.408a19.679,19.679 0 0 0 -14.309,6.008a25.439,25.439 0 0 0 -0.241,0.242q-6.15,6.25 -6.15,14.65zm352.8,-0.05q0,-8.45 -6.05,-14.65a20.507,20.507 0 0 0 -6.977,-4.792a19.68,19.68 0 0 0 -7.473,-1.408a19.679,19.679 0 0 0 -14.309,6.008a25.439,25.439 0 0 0 -0.241,0.242q-6.15,6.25 -6.15,14.65a19.849,19.849 0 0 0 5.959,14.357a25.278,25.278 0 0 0 0.191,0.193q6.15,6.15 14.6,6.15a19.411,19.411 0 0 0 14.167,-5.865a24.146,24.146 0 0 0 0.283,-0.285q6,-6.15 6,-14.6zm15.7,0.05a19.849,19.849 0 0 0 5.959,14.357a25.278,25.278 0 0 0 0.191,0.193q6.15,6.15 14.6,6.15a19.411,19.411 0 0 0 14.167,-5.865a24.146,24.146 0 0 0 0.283,-0.285q6,-6.15 6,-14.6q0,-8.45 -6.05,-14.65a20.507,20.507 0 0 0 -6.977,-4.792a19.68,19.68 0 0 0 -7.473,-1.408a19.679,19.679 0 0 0 -14.309,6.008a25.439,25.439 0 0 0 -0.241,0.242q-6.15,6.25 -6.15,14.65zm-414.5,13.5l29.1,-28.9q-6.2,-5.4 -14.15,-5.4a18.98,18.98 0 0 0 -12.733,4.878a25.437,25.437 0 0 0 -1.367,1.272a21.885,21.885 0 0 0 -4.258,5.844a18.65,18.65 0 0 0 -1.892,8.306q0,8 5.3,14zm194,0l29.1,-28.9q-6.2,-5.4 -14.15,-5.4a18.98,18.98 0 0 0 -12.733,4.878a25.437,25.437 0 0 0 -1.367,1.272a21.885,21.885 0 0 0 -4.258,5.844a18.65,18.65 0 0 0 -1.892,8.306q0,8 5.3,14zm98.8,0l29.1,-28.9q-6.2,-5.4 -14.15,-5.4a18.98,18.98 0 0 0 -12.733,4.878a25.437,25.437 0 0 0 -1.367,1.272a21.885,21.885 0 0 0 -4.258,5.844a18.65,18.65 0 0 0 -1.892,8.306q0,8 5.3,14zm182.1,0l29.1,-28.9q-6.2,-5.4 -14.15,-5.4a18.98,18.98 0 0 0 -12.733,4.878a25.437,25.437 0 0 0 -1.367,1.272a21.885,21.885 0 0 0 -4.258,5.844a18.65,18.65 0 0 0 -1.892,8.306q0,8 5.3,14z"/>
   </g>
  </g>
 </g>
</svg>