<svg id="Layer_1" data-name="Layer 1" xmlns="http://www.w3.org/2000/svg" viewBox="50 50 270 250">
	<defs>
		<style>
			.cls-1{fill:#0088e3;}
			.cls-2{fill:#fff;}
		</style>
	</defs>

Curved D part
	<path class="cls-2" d="M239.07,157.88A83.81,83.81,0,0,1,237.71,172,89.56,89.56,0,0,1,234,185.79a86.92,86.92,0,0,1-13.68,24.49,85.81,85.81,0,0,1-20.49,18.59,82.89,82.89,0,0,1-48.3,13.43V225.53a64.42,64.42,0,0,0,50.55-28.7,62.52,62.52,0,0,0,8.36-18.55,60.62,60.62,0,0,0,1.82-19.94,72.9,72.9,0,0,0-4-20L207.4,136l-1-2.25-.48-1.12-.56-1.08-1.1-2.15-1.24-2-.61-1-.68-1-1.33-1.94L199,121.63l-.73-.9-.79-.85-1.55-1.68-1.66-1.56c-.29-.25-.54-.53-.84-.78l-.88-.7-1.76-1.42-1.85-1.29-.92-.63-1-.57-1.94-1.15-.73-.44a16.51,16.51,0,1,1,16.91-28.35c.38.23.78.49,1.15.76l3.12,2.23,1.54,1.12c.5.39,1,.81,1.48,1.22l2.92,2.46c.94.87,1.85,1.75,2.76,2.65l1.35,1.33c.45.46.86.94,1.28,1.4l2.52,2.85c.79,1,1.55,2,2.32,3l1.15,1.5,1,1.56,2.06,3.13,1.86,3.23.91,1.61.81,1.66,1.6,3.32,1.39,3.4.68,1.69.58,1.71,1.16,3.44c.33,1.14.64,2.31.94,3.46a99.5,99.5,0,0,1,3.21,27.86"/>

Straight D Part
	<path class="cls-2" d="M151.53,215.09A16.57,16.57,0,0,1,135,198.52l0-125.06A16.57,16.57,0,0,1,151.5,56.89h0a16.57,16.57,0,0,1,16.57,16.57l0,125.06a16.57,16.57,0,0,1-16.57,16.57Z"/>

Curved extension
	<path class="cls-2" d="M147.00,225.53V242.3c-1.27,0-2.52-.12-3.76-.23a81.25,81.25,0,0,1-64.09-41.45,78.8,78.8,0,0,1-8.61-24.23,81.49,81.49,0,0,1-1.21-12.72c0-2.13,0-4.25.25-6.36l.25-3.15.47-3.14a77,77,0,0,1,2.93-12.25c.33-1,.73-2,1.09-3s.71-2,1.15-2.91l1.31-2.84c.22-.48.42-1,.66-1.42l.75-1.38a76.2,76.2,0,0,1,14.91-19.67,78,78,0,0,1,20.11-13.75A76.9,76.9,0,0,0,99.15,109a73.21,73.21,0,0,0-12.68,20l-.59,1.35c-.19.46-.34.94-.51,1.39l-1,2.78c-.35.91-.54,1.88-.83,2.81s-.56,1.88-.78,2.82A72.18,72.18,0,0,0,81,151.72l-.18,2.9,0,2.91c0,1.93.13,3.86.27,5.78a74.6,74.6,0,0,0,2,11.32,69.12,69.12,0,0,0,24.68,37,66.53,66.53,0,0,0,40.74,14c1,0,2,0,3-.07"/>
</svg>